<?xml version='1.0' encoding='utf-8'?>
<svg xmlns="http://www.w3.org/2000/svg" viewBox="0 0 392.11 429.89"> <path d="m171.05 0.42673c-16.685 0.25676-33.89 3.6366-51.738 10.84-6.5903 11.353-11.289 7.409-13.272 22.411-4.1414 41.573-8.1394 88.44-2.3687 131.69-68.443 24.304-104.35 52.569-103.22 57.583 1.1141 4.9414 42.068-6.9775 111.8-23.669l1.2973 11.12 3.6536 9.1339 3.68 4.5537 0.90014 10.987-4.5802 13.688 15.62-0.82072c-0.20579 2.2566 1.351 4.6912-1.3571 5.652-1.5428 0.54736-7.65-0.76049-7.5915 0.84215 0.42318 11.592-2.7163 23.594-6.8793 33.755-22.511 5.6771-22.235 15.337-31.933 24.218 36.516 4.2142 61.17-2.0838 96.475 47.84 20.51 16.68 38.845 45.637 62.765 46.745 17.984 0.83272 32.619 10.298 43.298 16.874l16.414 5.6025c-0.73204-6.978-13.808-31.5-14.142-39.362-1.0372-24.394-3.8276-50.14-31.134-59.22l-37.197-8.9221 7.7572-15.488c15.499 2.9375 46.912 8.8304 53.294-10.802 0.28908-5.6059 0.59419-11.196-2.9879-15.647 1.1633-3.9357 5.7786-8.4814 2.3282-14.395l-3.5234-4.4023 3.7859-4.1036-2.4887-13.979 15.925-2.5946c3.7767-0.85176 6.3292-3.3413 6.4599-9.0544l-12.43-18.612-15.144-18.85c5.4706-2.7144 7.1504-6.5065 8.975-12.867-1.0153-6.0943-2.4503-12.207-4.2095-18.268 66.988-12.47 113.46-19.05 112.39-23.801-1.042-4.6219-50.478-12.588-117.73-8.6044-17.548-29.071-27.046-63.963-36.403-94.013-8.549-12.729-22.268-22.742-30.817-25.151-11.644-2.8511-23.511-11.095-35.662-10.908z" fill-rule="evenodd" stroke="#000" stroke-width=".8472"/> </svg>