<?xml version='1.0' encoding='utf-8'?>
<svg xmlns="http://www.w3.org/2000/svg" enable-background="new 0 0 3879.812 5000" version="1.1" viewBox="0 0 3879.8 5e3"> <path d="m11.332 5e3c-0.296-5.812 0.448-11.911-1.061-17.389-8.704-31.604-10.515-64.247-9.833-96.384 0.824-38.808-1.63-77.583 0.367-116.36 30.341-589.16 272.06-1204.4 398.1-1370.3 22.735-28.085 2.624-12.782 55.531-70.079 13.1-14.187 25.12-29.454 39.243-42.682 20.816-19.497 37.784-42.521 58.388-62.267 12.538-12.015 22.354-26.751 35.218-38.734 7.742-7.211 6.531-13.206-3.308-15.281-26.268-5.541-48.212-22.371-74.507-27.602-2.38-0.473-4.884-2.055-6.607-3.825-18.486-18.997-39.665-35.292-56.59-55.823-31.556-38.277-61.564-107.54-73.322-127.4-6.203-10.48-9.201-22.616-13.439-34.05-3.826-10.322-16.539-15.851-22.126-26.431-17.657-33.437-50.706-68.589-40.861-131.84 1.887-12.125 3.824-24.243 10.042-35.311 4.182-7.442 5.581-16.066 4.868-24.542-3.6-42.779 9.72-53.289-4.851-65.263-32.143-26.415-28.609-60.573-31.549-93.94-0.605-6.874-10.784-1.638-15.12 3.772-32.213 40.197-44.269 85.634-35.954 136.54 6.161 37.717 11.639 75.549 18.183 113.2 7.29 41.937 23.082 69.001 21.654 133.76-0.715 32.408-2.193 64.802-3.578 97.192-0.244 5.715 0.375 11.809-3.22 16.917-3.009 4.277-7.191 0.906-7.824-0.38-2.417-4.904-1.251-10.132-1.047-15.274 1.285-32.379 2.351-64.768 3.87-97.135 2.512-53.537-28.507-113.97-29.772-163.64-0.622-24.434-6.8-24.65-6.462-30.165 2.751-44.815-22.095-107.79-2.634-159.48 37.641-99.981 88.133-84.994 100.26-124.4 0.184-0.599 0.741-1.072 1.006-1.657 3.281-7.244 13.283-10.661 11.754-20.638-8.615-3.203-16.505 1.583-24.717 2.492-148.38 16.432-198.88 44.318-238.29 19.991-24.876-15.358 3.12-35.415 15.367-48.092 33.568-34.747 143.39-63.115 211.95-114.18 34.217-25.481 20.555-6.138 97.613-69.563 191.33-157.48 188.08-177.11 425.33-298.68 2.862-1.467 5.699-3.203 8.094-5.327 12.817-11.365 12.326-14.608 6.183-26.525-30.874-59.891-6.17-55.012-61.579-183.87-47.543-110.56-76.018-237.74-107.97-354.44-20.39-74.461-39.206-149.35-56.432-224.61-26.874-117.41-71.135-199-6.659-323.98 46.344-89.828 179.51-237.4 242.86-300.05 317.3-313.78 737.88-482.97 1178.5-505.94 23.918-1.247 48.009 1.221 71.686 4.842 192.12 29.38 253.21 65.655 410.65 290.66 78.132 117.2 304.5 419.79 310.85 457.33 2.178 12.878 26.195 35.216 82.46 169.17 18.644 44.389 37.473 59.041 42.989 92.889 4.927 30.24 8.605 32.28 39.648 30.153 12.954-0.888 25.209-5.121 38.202-6.452 196.08-20.082 326.19-68.105 468.77-63.453 57.994 1.892 117.08 1.174 174.81 5.073 4.513 0.305 9.255 1.029 13.556 0.065 29.048-6.509 58.995-8.428 87.548-17.548 30.621-9.781 45.71-6.929 69.682-17.165 9.532-4.071 19.855-6.807 27.786 4.61 3.861 5.557 23.09 4.678 24.709 24.355 0.792 9.633-4.896 16.017-12.888 19.965-11.663 5.762-22.308 13.228-33.662 19.41-229.6 124.99-174.89 87.87-289.49 141.43-117.26 54.799-235.23 68.783-243.1 72.324-26.755 12.035-55.946 16.308-83.236 26.604-107.69 40.63-0.255-5.799-303.76 108.31-10.639 4-14.742 11.142-14.98 22.244-0.326 15.134 2.623 29.745 6.03 44.2 23.825 101.1 67.026 152.26 100.41 222.36 26.187 54.989 64.982 78.437 108.95 146.23 6.452 9.95 46.409 49.684 30.508 113.44-12.155 48.74-66.899 75.961-117.48 81.012-34.007 3.396-47.598-0.945-66.945 14.743-34.873 28.276-56.382 43.158-40.09 71.275 8.302 14.328 19.068 18.108 13.377 38.241-2.116 7.484-4.704 14.835-6.813 22.32-4.021 14.272-13.589 23.402-26.998 28.494-18.651 7.082-31.779 4.199-31.576 17.005 0.587 36.953-1.041 40.623 8.364 48.006 22.741 17.851 39.459 37.757 39.759 69.905 0.149 15.979-4.486 30.801-15.785 42.751-13.076 13.829-22.524 29.951-31.085 46.801-13.046 25.678-11.749 49.244 6.537 72.489 16.577 21.071 28.532 44.945 32.66 71.817 7.239 47.119-9.825 69.867-14.36 80.599-25.365 60.042-93.22 85.667-157.44 95.358-71.909 10.85-154.38-2.917-222.57-10.373-182.25-19.924-189.5-25.168-241.7-17.221-32.296 4.917-60.528 18.434-84.773 40.287-18.234 16.434-24.558 33.214-51.689 97.132-15.286 36.012-32.883 56.481-49.873 94.375-35.199 78.508-43.821 83.306-64.706 147.42-15.86 48.688-27.383 67.402-30.193 75.737-2.282 6.768-0.687 11.545 5.853 14.478 36.053 16.171 64.398 43.051 93.917 68.085 10.706 9.078 18.491 21.576 27.739 32.403 50.159 58.73 92.185 201.36 103.31 301.29 2.006 18.017 7.189 35.449 8.908 53.594 2.713 28.643 25.547 183.48 33.054 254.24 15.131 142.63 18.14 122.37 19.99 161.8 1.648 35.117 19.478 174.98 20.339 202.89 0.198 6.413 1.906 12.795 3.089 19.16 4.853 26.103 5.574 52.737 11.021 78.823 5.094 24.398 18.388 83.352 21.735 92.653 2.026 5.627 5.607 8.263 11.932 6.9 25.954-5.588 109.6 3.771 174.03 70.81 14.734 15.33 46.949 43.429 59.858 80.294 35.597 101.66 56.233 83.854 91.327 319.28 1.642 11.123 7.97 17.467 18.777 19.166 15.28 2.4 30.622 4.412 45.948 6.509 4.038 0.552 7.777-0.657 10.957-3.094 9.685-7.422 19.08-4.382 41.636-5.98 15.973-1.132 30.637 3.826 45.104 9.521 2.852 1.123 5.279 3.591 7.57 5.785 1.85 1.772 2.809 4.631 4.836 6.037 15.207 10.543 23.893 24.976 26.799 43.14 1.368 8.553 17.711 11.437 16.279 22.683h-2883.8zm478.1-1917.4c-0.702 12.316 1.894 19.38 11.314 27.532 5.344 4.625 10.779 9.159 17.265 12.47 25.737 13.139 27.112 26.896 79.548 38.836 6.971 1.588 12.571 0.683 17.938-4.092 46.385-41.268 40.639-55.828 60.176-70.481 5.274-3.955 4.325-7.858-1.553-12.656-24.366-19.885-45.686-15.149-49.522-36.956-6.273-35.664-50.003-13.114-109.25-28.726-8.276-2.181-11.917 0.319-13.716 9.12-3.359 16.434-11.8 61.478-12.199 64.953zm-116.24-399.44c-16.854 12.145-23.439 28.49-18.723 48.403 2.445 10.323 3.879 20.636 2.015 30.643-9.261 49.699 8.156 77.614 8.973 85.298 3.495 32.859 28.005 65.843 29.631 70.702 8.788 26.266 29.588 26.42 64.925 52.498 8.288 6.116 17.32 11.35 27.168 14.839 3.745 1.326 6.251-0.276 7.629-3.694 9.995-24.798 3.261-51.943-17.411-70.054-20.643-18.086-37.022-39.814-51.612-62.733-11.408-17.92-14.971-39.843-27.236-57.548-0.339-0.49-0.366-1.243-0.409-1.883-1.708-25.068-22.11-31.658-22.548-93.213-0.031-4.168 2.609-8.91-2.402-13.258zm-84.898-149.72c2.262 29.268 1.872 61.763 16.766 81.815 6.252 8.418 13.906 6.167 15.213-2.099 3.261-20.619 15.481-38.145 19.703-58.54 2.257-10.902 13.253-19.002 11.788-31.692-0.109-0.947 1.2-2.3 2.157-3.09 13.547-11.187 20.507-27.983 34.038-39.345 8.996-7.554 13.795-18.557 18.904-29.021 0.909-1.862 0.814-3.776-0.652-5.287-1.868-1.925-4.387-0.801-7.171 0.173-67.266 23.513-77.723 48.996-92.123 51.378-6.429 1.064-9.938 5.367-12.35 11.058-3.821 9.016-6.127 18.332-6.273 24.65zm122.44 425.46c-0.767 1.949-1.84 3.266-1.581 4.22 19.252 70.734 34.912 79.856 62.484 113.26 13.003 15.753 12.911-22.368 19.025-63.81 0.819-5.554-2.618-9.752-7.735-12.257-10.372-5.077-20.311-11.599-31.226-14.837-21.067-6.252-27.313-23.952-40.967-26.572zm2.128-480.46c-1.181 0.185-2.057 0.049-2.395 0.413-18.899 20.375-32.837 44.441-49.414 66.548-1.131 1.509-2.236 3.433-2.361 5.233-0.608 8.732-5.783 15.501-9.016 23.152-6.524 15.439-11.668 31.477-16.988 47.398-1.184 3.542-1.117 7.644-0.943 11.457 0.175 3.834 3.631 4.933 6.663 6.105 3.121 1.206 6.871 2.307 8.753-1.018 5.631-9.947 15.874-17.438 16.514-30.057 2.49-49.061 47.423-78.218 49.187-129.23zm174.97 523.07c-24.807-21.544-13.434-11.143-23.405-17.449-15.116-9.563-32.782-15.36-44.444-30.136-2.884-3.654-7.201-1.938-8.55 2.558-2.265 7.548 0.283 15.297-1.867 23.052-3.184 11.485-1.909 12.04 10.139 15.502 20.77 5.968 42.042 5.205 68.127 6.473zm-257.99-171.32c-0.839-7.243 2.123 0.426-13.906-47.968-0.303-0.915-3.33-3.23-5.84 0.711-4.304 6.757 8.823 46.837 11.09 54.33 0.323 1.068 4.525 6.279 7.733-1.191 0.734-1.709 0.633-3.778 0.923-5.882zm6.688-380.3c45.434-20.174 34.79-27.692 28.11-26.118-14.143 3.334-21.489 14.215-28.11 26.118zm-6.124 219.46c-0.315 2.622-0.727 5.856 2.074 6.836 3.005 1.051 4.509-1.832 5.65-4.137 2.042-4.122 4.031-8.422-0.366-12.289-0.743-0.654-2.564-0.86-3.47-0.417-4.332 2.114-3.467 6.5-3.888 10.007z"/> </svg>